<?xml version="1.0" encoding="UTF-8"?>
<!DOCTYPE svg PUBLIC "-//W3C//DTD SVG 1.1//EN" "http://www.w3.org/Graphics/SVG/1.1/DTD/svg11.dtd">
<svg xmlns="http://www.w3.org/2000/svg" version="1.1" width="512px" height="512px" style="shape-rendering:geometricPrecision; text-rendering:geometricPrecision; image-rendering:optimizeQuality; fill-rule:evenodd; clip-rule:evenodd" xmlns:xlink="http://www.w3.org/1999/xlink">
<g><path style="opacity:0.977" fill="#ffffff" d="M 252.5,41.5 C 335.748,43.6854 398.915,80.0188 442,150.5C 479.238,222.207 478.571,293.54 440,364.5C 397.196,432.085 335.529,467.085 255,469.5C 161.388,465.163 95.3885,420.496 57,335.5C 31.5204,266.193 38.187,200.193 77,137.5C 119.493,76.6626 177.993,44.6626 252.5,41.5 Z M 241.5,85.5 C 311.83,83.241 365.663,111.574 403,170.5C 413.868,189.898 421.034,210.565 424.5,232.5C 395.839,233.667 367.172,233.833 338.5,233C 325.216,193.235 297.55,172.068 255.5,169.5C 213.698,172.381 186.031,193.548 172.5,233C 143.833,233.667 115.167,233.667 86.5,233C 99.6821,162.155 140.349,115.155 208.5,92C 219.524,89.228 230.524,87.0613 241.5,85.5 Z M 249.5,213.5 C 274.148,212.663 289.982,223.996 297,247.5C 299.305,273.184 288.139,289.684 263.5,297C 237.38,299.203 220.88,287.703 214,262.5C 212.627,236.4 224.46,220.067 249.5,213.5 Z M 86.5,278.5 C 114.997,277.336 143.664,277.17 172.5,278C 185.809,317.796 213.476,338.963 255.5,341.5C 297.299,339.026 324.966,318.026 338.5,278.5C 367.167,277.167 395.833,277.167 424.5,278.5C 413.144,344.015 376.811,389.515 315.5,415C 239.214,438.975 174.714,421.141 122,361.5C 103.06,336.837 91.2262,309.17 86.5,278.5 Z"/></g>
</svg>
